<svg width="500" height="500" viewBox="0 0 500 500" xmlns="http://www.w3.org/2000/svg">
  <rect width="500" height="500" rx="100" fill="#1B0E3D"/>
  <ellipse cx="100" cy="100" rx="130" ry="130" fill="#6A1B9A" opacity="0.5"/>
  <ellipse cx="420" cy="150" rx="100" ry="100" fill="#00838F" opacity="0.4"/>
  <ellipse cx="250" cy="460" rx="260" ry="130" fill="#0D47A1" opacity="0.5"/>
  <circle cx="250" cy="320" r="180" fill="none" stroke="#FF6D00" stroke-width="5" opacity="0.25"/>
  <circle cx="250" cy="305" r="138" fill="none" stroke="#FF9100" stroke-width="8" opacity="0.4"/>
  <circle cx="250" cy="292" r="96" fill="none" stroke="#FFD740" stroke-width="12" opacity="0.55"/>
  <circle cx="250" cy="280" r="56" fill="none" stroke="#FFD740" stroke-width="14" opacity="0.7"/>
  <polygon points="250,240 80,500 420,500" fill="#FFD740" opacity="0.06"/>
  <circle cx="250" cy="200" r="100" fill="#2A1F4E" stroke="#7E57C2" stroke-width="3"/>
  <circle cx="250" cy="200" r="76" fill="#1B0E3D" stroke="#9575CD" stroke-width="2"/>
  <circle cx="250" cy="200" r="66" fill="none" stroke="#9575CD" stroke-width="3"/>
  <circle cx="250" cy="200" r="54" fill="#FFF8E1" stroke="#FFD740" stroke-width="2"/>
  <circle cx="250" cy="200" r="38" fill="#FFECB3"/>
  <circle cx="250" cy="200" r="24" fill="#FFF9E6"/>
  <circle cx="250" cy="200" r="12" fill="#FFFFFF"/>
  <circle cx="200" cy="150" r="5" fill="#2A1F4E" stroke="#7E57C2" stroke-width="1.5"/>
  <circle cx="300" cy="150" r="5" fill="#2A1F4E" stroke="#7E57C2" stroke-width="1.5"/>
  <circle cx="200" cy="250" r="5" fill="#2A1F4E" stroke="#7E57C2" stroke-width="1.5"/>
  <circle cx="300" cy="250" r="5" fill="#2A1F4E" stroke="#7E57C2" stroke-width="1.5"/>
</svg>